<svg width="19" height="22" viewBox="0 0 19 22" fill="none" xmlns="http://www.w3.org/2000/svg">
<path fill-rule="evenodd" clip-rule="evenodd" d="M14.3928 15.3096L18.7857 20.4643L18.0238 21.1191L13.619 15.9643C12.1031 17.1151 10.3968 17.6905 8.49991 17.6905C7.34909 17.6905 6.24791 17.4663 5.19634 17.0179C4.14478 16.5695 3.24002 15.9663 2.48205 15.2084C1.72408 14.4505 1.12091 13.5457 0.672531 12.4941C0.224156 11.4425 -4.6948e-05 10.3413 -7.8198e-05 9.19054C-0.000109448 8.03975 0.224094 6.93857 0.672531 5.88697C1.12097 4.83538 1.72414 3.93061 2.48205 3.17268C3.23995 2.41474 4.14472 1.81157 5.19634 1.36316C6.24797 0.914755 7.34916 0.690552 8.49991 0.690552C9.65066 0.690552 10.7518 0.914755 11.8035 1.36316C12.8551 1.81157 13.7599 2.41474 14.5178 3.17268C15.2757 3.93061 15.8788 4.83538 16.3273 5.88697C16.7757 6.93857 16.9999 8.03975 16.9999 9.19054C16.9999 10.3731 16.7697 11.4921 16.3094 12.5477C15.8491 13.6032 15.2102 14.5239 14.3928 15.3096L14.3928 15.3096ZM8.5 16.6905C9.85713 16.6905 11.1111 16.3552 12.2619 15.6845C13.4127 15.0138 14.3234 14.1031 14.9941 12.9523C15.6647 11.8016 16 10.5476 16 9.19044C16.0001 7.83329 15.6648 6.57932 14.9941 5.42854C14.3234 4.27775 13.4127 3.36705 12.2619 2.69643C11.1112 2.0258 9.85719 1.69049 8.5 1.69049C7.14281 1.69049 5.88884 2.0258 4.73809 2.69643C3.58734 3.36705 2.67664 4.27775 2.00598 5.42854C1.33533 6.57932 1.00002 7.83329 1.00005 9.19044C1.00008 10.5476 1.33539 11.8016 2.00598 12.9523C2.67658 14.1031 3.58728 15.0138 4.73809 15.6845C5.88891 16.3552 7.14288 16.6905 8.5 16.6905Z" fill="#B3B3B3"/>
</svg>
