<svg width="16" height="15" viewBox="0 0 16 15" fill="none" xmlns="http://www.w3.org/2000/svg">
<path d="M12.945 0.208374L12.293 1.00317C13.87 2.52608 14.863 4.69483 14.863 7.10525C14.863 9.51567 13.869 11.6844 12.293 13.2073L12.944 14.0021C13.8641 13.1271 14.5991 12.0618 15.102 10.8744C15.6048 9.68693 15.8646 8.40334 15.8647 7.10548C15.8648 5.80762 15.6052 4.52399 15.1025 3.33647C14.5998 2.14894 13.865 1.08359 12.945 0.208374ZM10.673 2.97921L10.022 3.774C10.4467 4.20881 10.784 4.72739 11.0143 5.29947C11.2445 5.87156 11.363 6.48567 11.3629 7.10599C11.3628 7.7263 11.2441 8.34038 11.0137 8.91239C10.7833 9.4844 10.4458 10.0029 10.021 10.4375L10.672 11.2323C11.712 10.1907 12.363 8.72817 12.363 7.10629C12.363 5.48442 11.713 4.02087 10.673 2.97921ZM0 3.98025V10.2303H2.804L8 13.3553V0.855249L2.804 3.98025H0ZM7 2.65942V11.5511L3.072 9.18858H1V5.02192H3.072L7 2.65942Z" fill="white"/>
</svg>
